<svg width="38" height="38" viewBox="0 0 38 38" fill="none" xmlns="http://www.w3.org/2000/svg">
<path d="M19 2.375C9.81914 2.375 2.375 10.0121 2.375 19.423C2.375 26.9562 7.13984 33.3391 13.7453 35.5953C13.838 35.6154 13.9325 35.6254 14.0273 35.625C14.6434 35.625 14.8809 35.1723 14.8809 34.7789C14.8809 34.3707 14.866 33.302 14.8586 31.8769C14.3087 32.0059 13.7461 32.0731 13.1813 32.0773C9.98242 32.0773 9.25508 29.591 9.25508 29.591C8.49805 27.6242 7.40703 27.0973 7.40703 27.0973C5.95977 26.0805 7.39961 26.0508 7.51094 26.0508H7.51836C9.18828 26.1992 10.0641 27.8172 10.0641 27.8172C10.8953 29.2719 12.0086 29.6801 13.0031 29.6801C13.6607 29.6669 14.3082 29.5152 14.9031 29.2348C15.0516 28.1363 15.482 27.3867 15.957 26.9562C12.2684 26.5258 8.38672 25.0637 8.38672 18.5324C8.38672 16.6695 9.03242 15.148 10.0938 13.9605C9.92305 13.5301 9.35156 11.7934 10.257 9.44805C10.3785 9.41898 10.5033 9.4065 10.6281 9.41094C11.2293 9.41094 12.5875 9.64101 14.8289 11.1996C17.5524 10.4376 20.4328 10.4376 23.1562 11.1996C25.3977 9.64101 26.7559 9.41094 27.357 9.41094C27.4818 9.4065 27.6067 9.41898 27.7281 9.44805C28.6336 11.7934 28.0621 13.5301 27.8914 13.9605C28.9527 15.1555 29.5984 16.677 29.5984 18.5324C29.5984 25.0785 25.7094 26.5184 22.0059 26.9414C22.5996 27.4684 23.134 28.5074 23.134 30.0957C23.134 32.3742 23.1117 34.2148 23.1117 34.7715C23.1117 35.1723 23.3418 35.625 23.9578 35.625C24.0575 35.6254 24.157 35.6155 24.2547 35.5953C30.8676 33.3391 35.625 26.9488 35.625 19.423C35.625 10.0121 28.1809 2.375 19 2.375Z" fill="#0F222D"/>
</svg>
