<svg width="775" height="336" viewBox="0 0 775 336" fill="none" xmlns="http://www.w3.org/2000/svg">
<g clip-path="url(#clip0_2_20)">
<path d="M699.073 138.61H244.376C242.446 138.61 240.594 139.376 239.229 140.741C237.864 142.105 237.097 143.956 237.097 145.885C237.097 147.815 237.864 149.665 239.229 151.03C240.594 152.394 242.446 153.161 244.376 153.161H257.256V327.209C257.256 329.138 258.023 330.989 259.388 332.353C260.753 333.717 262.605 334.484 264.535 334.484C266.466 334.484 268.317 333.717 269.683 332.353C271.048 330.989 271.815 329.138 271.815 327.209L271.925 153.161H636.866L670.514 327.209C670.514 329.138 671.281 330.989 672.646 332.353C674.012 333.717 675.863 334.484 677.794 334.484C679.725 334.484 681.576 333.717 682.941 332.353C684.307 330.989 685.073 329.138 685.073 327.209L687.191 153.161H699.073C701.003 153.161 702.855 152.394 704.22 151.03C705.585 149.665 706.352 147.815 706.352 145.885C706.352 143.956 705.585 142.105 704.22 140.741C702.855 139.376 701.003 138.61 699.073 138.61Z" fill="#CCCCCC"/>
<path d="M323.192 106.192V137.001H245.958C243.934 137.072 241.916 136.743 240.019 136.034C238.122 135.324 236.383 134.249 234.902 132.868C233.421 131.488 232.227 129.829 231.387 127.987C230.547 126.145 230.079 124.155 230.008 122.133C229.938 120.11 230.267 118.093 230.976 116.197C231.686 114.301 232.762 112.563 234.144 111.083C235.525 109.603 237.185 108.409 239.028 107.57C240.871 106.731 242.862 106.263 244.886 106.192C245.243 106.18 245.601 106.18 245.958 106.192L323.192 106.192Z" fill="#F2F2F2"/>
<path d="M325.089 136.764C325.089 137.078 324.964 137.38 324.742 137.602C324.519 137.824 324.218 137.949 323.903 137.949H244.583C240.276 137.946 236.148 136.234 233.104 133.19C230.06 130.146 228.35 126.019 228.35 121.715C228.35 117.412 230.06 113.284 233.104 110.24C236.148 107.196 240.276 105.484 244.583 105.481H323.903C324.059 105.481 324.214 105.511 324.358 105.57C324.502 105.63 324.633 105.717 324.744 105.827C324.854 105.937 324.942 106.068 325.002 106.212C325.061 106.356 325.092 106.51 325.092 106.666C325.092 106.822 325.061 106.976 325.002 107.12C324.942 107.264 324.854 107.395 324.744 107.505C324.633 107.615 324.502 107.702 324.358 107.762C324.214 107.821 324.059 107.851 323.903 107.851H244.583C240.907 107.857 237.384 109.32 234.787 111.919C232.19 114.519 230.731 118.042 230.731 121.715C230.731 125.388 232.19 128.912 234.787 131.511C237.384 134.11 240.907 135.574 244.583 135.579H323.903C324.218 135.579 324.519 135.704 324.742 135.926C324.964 136.149 325.089 136.45 325.089 136.764Z" fill="#BA3521"/>
<path d="M323.192 113.302H240.195C240.133 113.302 240.072 113.278 240.028 113.234C239.983 113.19 239.958 113.13 239.957 113.067C239.957 113.004 239.981 112.944 240.025 112.899C240.069 112.854 240.128 112.829 240.191 112.828H323.192C323.254 112.829 323.314 112.854 323.358 112.898C323.402 112.943 323.427 113.002 323.427 113.065C323.427 113.127 323.402 113.187 323.358 113.232C323.314 113.276 323.254 113.301 323.192 113.302Z" fill="#CCCCCC"/>
<path d="M323.192 118.99H240.195C240.133 118.99 240.072 118.966 240.028 118.922C239.983 118.878 239.958 118.818 239.957 118.755C239.957 118.692 239.981 118.632 240.025 118.587C240.069 118.542 240.128 118.517 240.191 118.516H323.192C323.254 118.516 323.314 118.542 323.358 118.586C323.402 118.63 323.427 118.69 323.427 118.753C323.427 118.815 323.402 118.875 323.358 118.92C323.314 118.964 323.254 118.989 323.192 118.99Z" fill="#CCCCCC"/>
<path d="M323.192 124.678H240.195C240.133 124.678 240.072 124.653 240.028 124.609C239.983 124.565 239.958 124.505 239.957 124.443C239.957 124.38 239.981 124.32 240.025 124.275C240.069 124.23 240.128 124.204 240.191 124.204H323.192C323.254 124.204 323.314 124.229 323.358 124.274C323.402 124.318 323.427 124.378 323.427 124.441C323.427 124.503 323.402 124.563 323.358 124.607C323.314 124.652 323.254 124.677 323.192 124.678Z" fill="#CCCCCC"/>
<path d="M323.192 130.365H240.195C240.133 130.366 240.072 130.341 240.028 130.297C239.983 130.253 239.958 130.193 239.957 130.13C239.957 130.068 239.981 130.007 240.025 129.963C240.069 129.918 240.128 129.892 240.191 129.891H323.192C323.254 129.892 323.314 129.917 323.358 129.962C323.402 130.006 323.427 130.066 323.427 130.128C323.427 130.191 323.402 130.251 323.358 130.295C323.314 130.339 323.254 130.365 323.192 130.365Z" fill="#CCCCCC"/>
<path d="M308.633 73.733V104.542H231.399C227.311 104.684 223.334 103.198 220.343 100.409C217.352 97.6207 215.591 93.759 215.449 89.6734C215.307 85.5879 216.794 81.6133 219.584 78.6238C222.374 75.6344 226.238 73.8752 230.326 73.733C230.684 73.7206 231.041 73.7206 231.399 73.733H308.633Z" fill="#F2F2F2"/>
<path d="M310.53 104.305C310.53 104.619 310.405 104.921 310.182 105.143C309.96 105.365 309.659 105.49 309.344 105.49H230.023C225.715 105.49 221.584 103.78 218.537 100.735C215.491 97.6907 213.78 93.5615 213.78 89.256C213.78 84.9505 215.491 80.8213 218.537 77.7769C221.584 74.7324 225.715 73.0221 230.023 73.0221H309.344C309.5 73.0221 309.654 73.0527 309.798 73.1123C309.942 73.1718 310.072 73.2591 310.183 73.3691C310.293 73.4792 310.38 73.6098 310.44 73.7536C310.499 73.8973 310.53 74.0514 310.53 74.207C310.53 74.3626 310.499 74.5167 310.44 74.6605C310.38 74.8042 310.293 74.9349 310.183 75.0449C310.072 75.1549 309.942 75.2422 309.798 75.3018C309.654 75.3613 309.5 75.392 309.344 75.392H230.023C226.344 75.392 222.816 76.8527 220.214 79.4527C217.613 82.0527 216.151 85.5791 216.151 89.256C216.151 92.933 217.613 96.4594 220.214 99.0594C222.816 101.659 226.344 103.12 230.023 103.12H309.344C309.659 103.12 309.96 103.245 310.182 103.467C310.405 103.689 310.53 103.991 310.53 104.305Z" fill="#3F3D56"/>
<path d="M308.633 80.8428H225.636C225.574 80.8431 225.513 80.8186 225.469 80.7746C225.424 80.7306 225.398 80.6707 225.398 80.608C225.397 80.5453 225.422 80.4849 225.465 80.4401C225.509 80.3953 225.569 80.3696 225.632 80.3688H308.633C308.695 80.3694 308.755 80.3947 308.799 80.439C308.843 80.4834 308.867 80.5433 308.867 80.6058C308.867 80.6682 308.843 80.7282 308.799 80.7725C308.755 80.8169 308.695 80.8422 308.633 80.8428Z" fill="#CCCCCC"/>
<path d="M308.633 86.5306H225.636C225.574 86.5309 225.513 86.5064 225.469 86.4624C225.424 86.4184 225.398 86.3585 225.398 86.2958C225.397 86.2331 225.422 86.1727 225.465 86.1279C225.509 86.0831 225.569 86.0574 225.632 86.0566H308.633C308.695 86.0572 308.755 86.0825 308.799 86.1269C308.843 86.1712 308.867 86.2312 308.867 86.2936C308.867 86.356 308.843 86.416 308.799 86.4604C308.755 86.5047 308.695 86.53 308.633 86.5306Z" fill="#CCCCCC"/>
<path d="M308.633 92.2184H225.636C225.574 92.2187 225.513 92.1942 225.469 92.1502C225.424 92.1062 225.398 92.0463 225.398 91.9836C225.397 91.9209 225.422 91.8605 225.465 91.8157C225.509 91.7709 225.569 91.7453 225.632 91.7444H308.633C308.695 91.7451 308.755 91.7703 308.799 91.8147C308.843 91.8591 308.867 91.919 308.867 91.9814C308.867 92.0439 308.843 92.1038 308.799 92.1482C308.755 92.1925 308.695 92.2178 308.633 92.2184Z" fill="#CCCCCC"/>
<path d="M308.633 97.9062H225.636C225.574 97.9065 225.513 97.882 225.469 97.838C225.424 97.794 225.398 97.7341 225.398 97.6714C225.397 97.6087 225.422 97.5483 225.465 97.5035C225.509 97.4587 225.569 97.433 225.632 97.4322H308.633C308.695 97.4328 308.755 97.4581 308.799 97.5025C308.843 97.5468 308.867 97.6068 308.867 97.6692C308.867 97.7317 308.843 97.7916 308.799 97.8359C308.755 97.8803 308.695 97.9056 308.633 97.9062Z" fill="#CCCCCC"/>
<path d="M398.479 247.63V220.767C398.479 219.58 398.007 218.441 397.167 217.601C396.327 216.762 395.187 216.29 393.999 216.29H292.085C290.896 216.29 289.757 216.762 288.917 217.601C288.077 218.441 287.605 219.58 287.605 220.767V247.63H398.479Z" fill="#CCCCCC"/>
<path d="M398.479 257.703H287.605V292.401H398.479V257.703Z" fill="#CCCCCC"/>
<path d="M287.605 302.475V329.337C287.605 330.525 288.077 331.663 288.917 332.503C289.757 333.343 290.896 333.814 292.085 333.814H393.999C395.187 333.814 396.327 333.343 397.167 332.503C398.007 331.663 398.479 330.525 398.479 329.337V302.475H287.605Z" fill="#CCCCCC"/>
<path d="M342.482 236.437C344.337 236.437 345.842 234.934 345.842 233.079C345.842 231.225 344.337 229.721 342.482 229.721C340.626 229.721 339.122 231.225 339.122 233.079C339.122 234.934 340.626 236.437 342.482 236.437Z" fill="white"/>
<path d="M342.482 281.208C344.337 281.208 345.842 279.705 345.842 277.85C345.842 275.996 344.337 274.492 342.482 274.492C340.626 274.492 339.122 275.996 339.122 277.85C339.122 279.705 340.626 281.208 342.482 281.208Z" fill="white"/>
<path d="M342.662 325.031C344.518 325.031 346.022 323.528 346.022 321.674C346.022 319.819 344.518 318.316 342.662 318.316C340.806 318.316 339.302 319.819 339.302 321.674C339.302 323.528 340.806 325.031 342.662 325.031Z" fill="white"/>
<path d="M385.909 185.661V216.47H308.675C304.589 216.609 300.614 215.121 297.626 212.333C294.637 209.545 292.878 205.685 292.736 201.602C292.593 197.518 294.079 193.545 296.867 190.556C299.654 187.567 303.516 185.806 307.601 185.661C307.959 185.649 308.317 185.649 308.675 185.661H385.909Z" fill="#F2F2F2"/>
<path d="M387.806 216.233C387.806 216.547 387.681 216.849 387.458 217.071C387.236 217.293 386.935 217.418 386.62 217.418H307.299C302.992 217.419 298.861 215.71 295.814 212.668C292.767 209.626 291.054 205.498 291.052 201.194C291.049 196.889 292.757 192.76 295.8 189.714C298.844 186.668 302.973 184.954 307.28 184.95H386.62C386.776 184.95 386.931 184.98 387.075 185.039C387.219 185.099 387.35 185.186 387.461 185.296C387.571 185.406 387.659 185.537 387.718 185.681C387.778 185.825 387.809 185.979 387.809 186.135C387.809 186.291 387.778 186.445 387.718 186.589C387.659 186.733 387.571 186.864 387.461 186.974C387.35 187.084 387.219 187.171 387.075 187.231C386.931 187.29 386.776 187.32 386.62 187.32H307.299C303.623 187.325 300.1 188.788 297.502 191.387C294.904 193.987 293.445 197.51 293.445 201.184C293.445 204.858 294.904 208.381 297.502 210.981C300.1 213.58 303.623 215.043 307.299 215.048H386.62C386.935 215.048 387.236 215.173 387.458 215.395C387.681 215.617 387.806 215.919 387.806 216.233Z" fill="#3F3D56"/>
<path d="M385.909 192.771H302.912C302.85 192.771 302.789 192.747 302.745 192.703C302.7 192.659 302.675 192.599 302.674 192.536C302.673 192.473 302.698 192.413 302.742 192.368C302.785 192.323 302.845 192.298 302.908 192.297H385.909C385.971 192.297 386.031 192.323 386.075 192.367C386.119 192.411 386.143 192.471 386.143 192.534C386.143 192.596 386.119 192.656 386.075 192.7C386.031 192.745 385.971 192.77 385.909 192.771H385.909Z" fill="#CCCCCC"/>
<path d="M385.909 198.459H302.912C302.85 198.459 302.789 198.434 302.745 198.39C302.7 198.346 302.675 198.287 302.674 198.224C302.673 198.161 302.698 198.101 302.742 198.056C302.785 198.011 302.845 197.986 302.908 197.985H385.909C385.971 197.985 386.031 198.011 386.075 198.055C386.119 198.099 386.143 198.159 386.143 198.222C386.143 198.284 386.119 198.344 386.075 198.388C386.031 198.433 385.971 198.458 385.909 198.459H385.909Z" fill="#CCCCCC"/>
<path d="M385.909 204.146H302.912C302.85 204.147 302.789 204.122 302.745 204.078C302.7 204.034 302.675 203.974 302.674 203.912C302.673 203.849 302.698 203.789 302.742 203.744C302.785 203.699 302.845 203.673 302.908 203.672H385.909C385.971 203.673 386.031 203.698 386.075 203.743C386.119 203.787 386.143 203.847 386.143 203.909C386.143 203.972 386.119 204.032 386.075 204.076C386.031 204.121 385.971 204.146 385.909 204.146H385.909Z" fill="#CCCCCC"/>
<path d="M385.909 209.834H302.912C302.85 209.835 302.789 209.81 302.745 209.766C302.7 209.722 302.675 209.662 302.674 209.599C302.673 209.537 302.698 209.476 302.742 209.432C302.785 209.387 302.845 209.361 302.908 209.36H385.909C385.971 209.361 386.031 209.386 386.075 209.43C386.119 209.475 386.143 209.535 386.143 209.597C386.143 209.66 386.119 209.72 386.075 209.764C386.031 209.808 385.971 209.834 385.909 209.834H385.909Z" fill="#CCCCCC"/>
<path d="M295.202 63.4552H260.013C259.679 63.455 259.35 63.5316 259.05 63.6791L250.169 68.1226C249.877 68.2468 249.627 68.4541 249.452 68.7188C249.277 68.9835 249.183 69.2939 249.183 69.6112C249.183 69.9286 249.277 70.239 249.452 70.5037C249.627 70.7684 249.877 70.9757 250.169 71.0999L259.05 75.5434C259.35 75.6909 259.679 75.7675 260.013 75.7673H295.202C295.687 75.7953 296.163 75.6313 296.528 75.3108C296.893 74.9902 297.116 74.539 297.151 74.0547V65.1677C297.116 64.6835 296.893 64.2322 296.528 63.9117C296.163 63.5912 295.687 63.4272 295.202 63.4552Z" fill="#3F3D56"/>
<path d="M297.151 65.1678V74.0548C297.116 74.539 296.893 74.9903 296.528 75.3108C296.163 75.6314 295.687 75.7954 295.202 75.7673H288.191V63.4552H295.202C295.687 63.4272 296.163 63.5912 296.528 63.9117C296.893 64.2323 297.116 64.6835 297.151 65.1678Z" fill="#BA3521"/>
<path d="M84.2357 237.593C88.7667 239.185 93.6315 239.584 98.3615 238.751C103.091 237.918 107.527 235.882 111.241 232.839C120.7 224.905 123.666 211.833 126.079 199.729C128.458 187.795 130.837 175.862 133.216 163.928L118.273 174.211C107.528 181.606 96.5397 189.238 89.0993 199.949C81.659 210.66 78.4112 225.281 84.3893 236.871" fill="#E6E6E6"/>
<path d="M85.513 280.937C84.0006 269.928 82.4455 258.776 83.5063 247.649C84.4485 237.766 87.4653 228.113 93.6073 220.199C96.8674 216.006 100.834 212.413 105.33 209.583C106.502 208.843 107.581 210.7 106.414 211.436C98.6354 216.349 92.6191 223.604 89.2323 232.154C85.4917 241.663 84.891 252.028 85.5356 262.129C85.9255 268.238 86.7516 274.306 87.5841 280.367C87.6497 280.641 87.6088 280.93 87.4696 281.175C87.3303 281.42 87.1032 281.603 86.8341 281.687C86.5595 281.761 86.2668 281.724 86.0195 281.583C85.7722 281.443 85.5902 281.211 85.513 280.937L85.513 280.937Z" fill="#F2F2F2"/>
<path d="M100.08 261.455C102.023 264.407 104.694 266.809 107.836 268.429C110.978 270.05 114.484 270.835 118.017 270.708C127.098 270.277 134.668 263.943 141.482 257.93L161.638 240.145L148.298 239.507C138.705 239.048 128.864 238.62 119.727 241.576C110.59 244.533 102.163 251.649 100.492 261.101" fill="#E6E6E6"/>
<path d="M81.2389 287.266C88.5183 274.394 96.9617 260.087 112.049 255.515C116.244 254.247 120.642 253.793 125.008 254.177C126.384 254.296 126.04 256.415 124.667 256.297C117.349 255.69 110.046 257.621 103.986 261.765C98.1548 265.732 93.6146 271.247 89.7719 277.095C87.4181 280.677 85.3097 284.411 83.2009 288.141C82.5269 289.332 80.5571 288.472 81.2389 287.266L81.2389 287.266Z" fill="#F2F2F2"/>
<path d="M69.5753 300.816C69.8205 297.976 70.8409 295.257 72.5252 292.956C74.2096 290.655 76.4933 288.861 79.1277 287.767V280.325H91.6169V288.002C94.1217 289.149 96.2773 290.939 97.864 293.19C99.4507 295.441 100.412 298.073 100.649 300.816L103.586 334.934H66.6385L69.5753 300.816Z" fill="#F2F2F2"/>
<path d="M494.312 137.91L490.597 136.347L488.048 117.733H454.108L451.345 136.271L448.021 137.932C447.862 138.011 447.734 138.142 447.659 138.303C447.584 138.464 447.565 138.646 447.606 138.819C447.647 138.992 447.745 139.146 447.884 139.256C448.024 139.366 448.196 139.426 448.374 139.426H494.006C494.188 139.426 494.365 139.363 494.506 139.248C494.647 139.133 494.744 138.972 494.78 138.794C494.816 138.615 494.789 138.43 494.704 138.269C494.619 138.108 494.48 137.981 494.312 137.91Z" fill="#E6E6E6"/>
<path d="M554.627 120.21H387.901C387.026 120.208 386.188 119.859 385.57 119.24C384.952 118.621 384.605 117.783 384.605 116.908V93.4117H557.923V116.908C557.923 117.783 557.576 118.621 556.958 119.24C556.34 119.859 555.502 120.208 554.627 120.21Z" fill="#CCCCCC"/>
<path d="M558.097 104.517H384.453V3.97951C384.454 2.92443 384.874 1.91291 385.621 1.16687C386.367 0.42083 387.38 0.00118057 388.435 0H554.115C555.171 0.00118055 556.183 0.420831 556.93 1.16687C557.676 1.91291 558.096 2.92443 558.097 3.97951L558.097 104.517Z" fill="#3F3D56"/>
<path d="M547.726 97.2197H394.824C394.01 97.2188 393.23 96.8953 392.655 96.3202C392.079 95.745 391.755 94.9652 391.755 94.1518V10.3649C391.755 9.55152 392.079 8.77166 392.655 8.19648C393.23 7.62129 394.01 7.29775 394.824 7.29681H547.726C548.54 7.29775 549.32 7.62129 549.896 8.19648C550.471 8.77166 550.795 9.55151 550.796 10.3649V94.1518C550.795 94.9652 550.471 95.745 549.896 96.3202C549.32 96.8953 548.54 97.2188 547.726 97.2197Z" fill="white"/>
<path d="M507.454 126.784C508.441 125.873 509.616 125.189 510.897 124.78C512.177 124.372 513.531 124.249 514.864 124.421C516.197 124.592 517.476 125.053 518.611 125.772C519.746 126.491 520.71 127.45 521.434 128.581L542.116 124.906L547.416 136.923L518.136 141.702C516.154 142.792 513.84 143.118 511.634 142.617C509.428 142.116 507.482 140.824 506.165 138.985C504.848 137.146 504.252 134.888 504.49 132.64C504.727 130.391 505.782 128.307 507.454 126.784Z" fill="#C29393"/>
<path d="M526.602 142.127L548.163 141.858L550.893 141.821L594.76 141.269C594.76 141.269 606.672 129.911 617.045 118.217L615.591 107.707C614.173 97.3933 609.053 87.9453 601.185 81.1219C586.329 91.043 577.714 110.681 577.714 110.681L550.514 117.182L547.793 117.833L530.893 121.869L526.602 142.127Z" fill="#BA3521"/>
<path d="M636.976 206.723H596.73C596.73 208.447 552.735 209.846 552.735 209.846C551.764 210.576 550.88 211.414 550.098 212.343C547.75 215.143 546.466 218.681 546.474 222.335V224.832C546.475 228.972 548.121 232.942 551.05 235.869C553.979 238.797 557.952 240.442 562.094 240.443H636.976C641.118 240.44 645.089 238.794 648.018 235.867C650.946 232.94 652.593 228.972 652.597 224.832V222.335C652.591 218.196 650.943 214.229 648.015 211.302C645.087 208.376 641.117 206.729 636.976 206.723Z" fill="#E4E4E4"/>
<path d="M607.709 239.823H591.464V333.536H607.709V239.823Z" fill="#E4E4E4"/>
<path d="M545.228 332.965C545.228 334.72 569.845 333.644 600.211 333.644C630.578 333.644 655.195 334.72 655.195 332.965C655.195 331.211 630.578 317.3 600.211 317.3C569.845 317.3 545.228 331.211 545.228 332.965Z" fill="#E4E4E4"/>
<path d="M534.315 322.258L522.225 322.257L516.473 275.65L534.317 275.651L534.315 322.258Z" fill="#C29393"/>
<path d="M537.398 333.97L498.414 333.969V333.476C498.414 329.454 500.013 325.597 502.859 322.753C505.704 319.909 509.564 318.312 513.588 318.312H513.589L537.399 318.312L537.398 333.97Z" fill="#2A3C47"/>
<path d="M498.581 322.258L486.491 322.257L480.739 275.65L498.583 275.651L498.581 322.258Z" fill="#C29393"/>
<path d="M501.664 333.97L462.68 333.969V333.476C462.68 329.454 464.279 325.597 467.125 322.753C469.97 319.909 473.83 318.312 477.854 318.312H477.855L501.665 318.312L501.664 333.97Z" fill="#2A3C47"/>
<path d="M606.883 53.939C618.493 53.939 627.905 44.5328 627.905 32.9297C627.905 21.3266 618.493 11.9204 606.883 11.9204C595.273 11.9204 585.862 21.3266 585.862 32.9297C585.862 44.5328 595.273 53.939 606.883 53.939Z" fill="#C29393"/>
<path d="M640.907 176.877C640.907 176.877 647.96 214.152 621.123 218.899C594.286 223.646 555.546 226.982 555.546 226.982L538.149 308.101L514.777 306.016C514.777 306.016 517.885 208.366 525.529 200.727C533.173 193.087 581.488 170.212 581.488 170.212L640.907 176.877Z" fill="#0F222D"/>
<path d="M588.492 161.255L576.755 173.023C576.755 173.023 492.005 186.666 488.735 206.228C483.799 235.764 477.969 299.99 477.969 299.99L503.45 298.08L513.442 225.072L554.211 215.804L600.595 190.54L588.492 161.255Z" fill="#0F222D"/>
<path d="M627.112 20.3888C625.037 16.4758 622.4 8.67735 618.212 7.23103C615.886 6.46023 613.482 5.94839 611.043 5.70483L603.924 8.44139L607.799 5.42967C607.044 5.38475 606.29 5.34803 605.537 5.31951L600.733 7.16588L603.191 5.25562C598.713 5.20969 594.09 5.67504 590.62 8.39958C587.662 10.7223 584.731 19.521 584.257 23.2506C583.751 26.8185 583.928 30.4501 584.78 33.9518L585.996 35.1078C586.422 34.1327 586.742 33.1149 586.951 32.0717C587.387 30.1226 588.225 28.2857 589.41 26.678C590.596 25.0703 592.104 23.7272 593.838 22.7341L593.904 22.6968C595.944 21.5492 598.42 21.6021 600.76 21.6862L611.872 22.0859C614.545 22.182 617.424 22.3511 619.508 24.0271C620.833 25.2634 621.874 26.7714 622.561 28.4476C623.597 30.5367 625.621 38.4161 625.621 38.4161C625.621 38.4161 626.766 36.9288 627.315 38.0358C628.195 35.1475 628.73 32.1653 628.909 29.1513C629.084 26.1239 628.464 23.1034 627.112 20.3888Z" fill="#2F2E41"/>
<path d="M700.637 42.156C699.296 42.2442 697.99 42.6253 696.813 43.2722C695.635 43.9192 694.614 44.8163 693.82 45.9005C693.027 46.9846 692.481 48.2294 692.222 49.5471C691.962 50.8649 691.994 52.2235 692.317 53.5273L675.412 65.9896L680.484 78.1035L704.11 60.1693C706.265 59.4827 708.094 58.0297 709.25 56.0856C710.405 54.1415 710.807 51.8413 710.379 49.6209C709.951 47.4005 708.723 45.4142 706.927 44.0384C705.131 42.6626 702.893 41.9928 700.637 42.156Z" fill="#C29393"/>
<path d="M697.916 67.5978L655.538 114.636C655.538 114.636 635.272 108.152 619.598 101.122L612.557 79.5089C610.922 74.4948 610.224 69.2229 610.499 63.9564C632.226 58.1782 657.498 79.6783 657.498 79.6783L689.22 54.8452L697.916 67.5978Z" fill="#BA3521"/>
<path d="M599.031 180.351C591.471 177.741 583.653 175.042 575.22 174.029L574.858 173.985L574.958 173.635C583.687 143.003 581.508 123.408 577.231 93.9738C576.321 87.6248 577.49 81.1521 580.563 75.5216C583.636 69.8912 588.449 65.405 594.283 62.7326L594.335 62.7092L618.419 61.1797L618.474 61.1763L635.99 66.325C638.51 67.0711 640.716 68.6223 642.269 70.7409C643.822 72.8596 644.638 75.4287 644.59 78.0548C644.4 87.7348 644.803 98.5423 645.229 109.984C646.185 135.653 647.173 162.196 641.565 179.418L641.535 179.508L641.46 179.567C636.304 183.764 629.845 186.031 623.195 185.979C615.333 185.979 607.31 183.209 599.031 180.351Z" fill="#BA3521"/>
<path d="M773.88 336H1.11994C0.822917 336 0.538058 335.882 0.328029 335.672C0.117999 335.462 0 335.178 0 334.881C0 334.584 0.117999 334.299 0.328029 334.089C0.538058 333.879 0.822917 333.761 1.11994 333.761H773.88C774.177 333.761 774.462 333.879 774.672 334.089C774.882 334.299 775 334.584 775 334.881C775 335.178 774.882 335.462 774.672 335.672C774.462 335.882 774.177 336 773.88 336Z" fill="#CCCCCC"/>
</g>
<defs>
<clipPath id="clip0_2_20">
<rect width="775" height="336" fill="white"/>
</clipPath>
</defs>
</svg>
