<svg width="39" height="39" viewBox="0 0 39 39" fill="none" xmlns="http://www.w3.org/2000/svg">
<path d="M26.6091 5.281C28.493 5.28662 30.2982 6.0375 31.6304 7.36965C32.9625 8.70179 33.7134 10.507 33.719 12.3909V26.6091C33.7134 28.493 32.9625 30.2982 31.6304 31.6304C30.2982 32.9625 28.493 33.7134 26.6091 33.719H12.3909C10.507 33.7134 8.70179 32.9625 7.36965 31.6304C6.0375 30.2982 5.28662 28.493 5.281 26.6091V12.3909C5.28662 10.507 6.0375 8.70179 7.36965 7.36965C8.70179 6.0375 10.507 5.28662 12.3909 5.281H26.6091ZM26.6091 2.4375H12.3909C6.91641 2.4375 2.4375 6.91641 2.4375 12.3909V26.6091C2.4375 32.0836 6.91641 36.5625 12.3909 36.5625H26.6091C32.0836 36.5625 36.5625 32.0836 36.5625 26.6091V12.3909C36.5625 6.91641 32.0836 2.4375 26.6091 2.4375Z" fill="#0F222D"/>
<path d="M28.7419 12.3909C28.3201 12.3909 27.9077 12.2658 27.557 12.0314C27.2063 11.7971 26.9329 11.464 26.7715 11.0742C26.61 10.6845 26.5678 10.2557 26.6501 9.84197C26.7324 9.42824 26.9355 9.04821 27.2338 8.74993C27.5321 8.45165 27.9121 8.24852 28.3258 8.16623C28.7396 8.08393 29.1684 8.12617 29.5581 8.2876C29.9478 8.44902 30.2809 8.72239 30.5153 9.07313C30.7497 9.42387 30.8747 9.83623 30.8747 10.2581C30.8753 10.5383 30.8206 10.8159 30.7136 11.075C30.6067 11.334 30.4496 11.5694 30.2514 11.7675C30.0532 11.9657 29.8179 12.1228 29.5588 12.2297C29.2998 12.3367 29.0222 12.3915 28.7419 12.3909ZM19.5 13.8122C20.6249 13.8122 21.7246 14.1458 22.6599 14.7708C23.5953 15.3958 24.3243 16.2841 24.7548 17.3234C25.1853 18.3627 25.2979 19.5063 25.0785 20.6096C24.859 21.7129 24.3173 22.7264 23.5219 23.5218C22.7264 24.3173 21.7129 24.859 20.6096 25.0785C19.5063 25.2979 18.3627 25.1853 17.3234 24.7548C16.2841 24.3243 15.3958 23.5953 14.7708 22.6599C14.1458 21.7246 13.8122 20.6249 13.8122 19.5C13.8139 17.992 14.4136 16.5462 15.4799 15.4799C16.5462 14.4136 17.992 13.8138 19.5 13.8122ZM19.5 10.9687C17.8127 10.9687 16.1633 11.4691 14.7603 12.4065C13.3573 13.3439 12.2639 14.6763 11.6182 16.2352C10.9724 17.7941 10.8035 19.5095 11.1327 21.1644C11.4619 22.8193 12.2744 24.3394 13.4675 25.5325C14.6606 26.7256 16.1807 27.5381 17.8356 27.8673C19.4905 28.1965 21.2059 28.0275 22.7648 27.3818C24.3237 26.7361 25.6561 25.6427 26.5935 24.2397C27.5309 22.8367 28.0313 21.1873 28.0313 19.5C28.0313 17.2374 27.1324 15.0674 25.5325 13.4675C23.9326 11.8676 21.7626 10.9687 19.5 10.9687Z" fill="#0F222D"/>
</svg>
