<svg width="39" height="39" viewBox="0 0 39 39" fill="none" xmlns="http://www.w3.org/2000/svg">
<path d="M33.8333 2.4375H5.35336C3.79717 2.4375 2.4375 3.55723 2.4375 5.09514V33.6383C2.4375 35.1845 3.79717 36.5625 5.35336 36.5625H33.8249C35.3895 36.5625 36.5625 35.1754 36.5625 33.6383V5.09514C36.5716 3.55723 35.3895 2.4375 33.8333 2.4375ZM13.0155 30.8824H8.12678V15.6823H13.0155V30.8824ZM10.7402 13.3712H10.7052C9.14062 13.3712 8.12754 12.2065 8.12754 10.7486C8.12754 9.26402 9.16729 8.12678 10.7669 8.12678C12.3665 8.12678 13.3453 9.25564 13.3804 10.7486C13.3796 12.2065 12.3665 13.3712 10.7402 13.3712ZM30.8824 30.8824H25.9937V22.5713C25.9937 20.5801 25.2822 19.2197 23.5135 19.2197C22.1622 19.2197 21.3624 20.1338 21.0067 21.0242C20.8734 21.3441 20.8376 21.7798 20.8376 22.2247V30.8824H15.9489V15.6823H20.8376V17.7976C21.549 16.7845 22.6604 15.3265 25.2464 15.3265C28.4555 15.3265 30.8831 17.4418 30.8831 22.0022L30.8824 30.8824Z" fill="#0F222D"/>
</svg>
