<svg width="577" height="494" viewBox="0 0 577 494" fill="none" xmlns="http://www.w3.org/2000/svg">
<g clip-path="url(#clip0_4_60)">
<path d="M169.422 488.35C178.677 480.53 184.298 468.177 182.824 456.151C181.349 444.125 172.219 433.069 160.375 430.515C148.531 427.962 135.03 435.031 131.432 446.601C129.452 424.295 127.171 401.054 115.312 382.058C104.573 364.858 85.9745 352.551 65.8175 350.349C45.6604 348.147 24.4376 356.463 11.8664 372.373C-0.704833 388.283 -3.78284 411.412 5.02172 429.678C11.5077 443.133 23.4572 453.147 35.9773 461.294C76.4343 487.398 124.957 498.013 172.618 491.187" fill="#F2F2F2"/>
<path d="M31.7994 356.924C48.4314 370.471 63.6896 385.622 77.3532 402.159C98.7366 427.95 116.04 456.866 128.662 487.9C129.585 490.164 125.909 491.15 124.995 488.911C116.969 469.29 107.039 450.502 95.3483 432.817C77.1172 405.192 54.7815 380.507 29.111 359.613C27.213 358.067 29.917 355.391 31.7994 356.924V356.924Z" fill="white"/>
<path d="M175.814 488.35C166.56 480.53 160.938 468.177 162.412 456.151C163.887 444.125 173.017 433.069 184.861 430.515C196.705 427.962 210.207 435.031 213.804 446.601C215.784 424.295 218.065 401.054 229.924 382.058C240.663 364.858 259.262 352.551 279.419 350.349C299.576 348.147 320.799 356.463 333.37 372.373C345.941 388.283 349.019 411.412 340.214 429.678C333.728 443.133 321.779 453.147 309.259 461.294C268.802 487.398 220.279 498.013 172.618 491.187" fill="#F2F2F2"/>
<path d="M313.437 356.924C296.805 370.471 281.547 385.622 267.883 402.159C246.5 427.95 229.196 456.866 216.575 487.9C215.651 490.164 219.327 491.15 220.241 488.911C240.891 438.474 273.858 394.019 316.125 359.613C318.023 358.067 315.319 355.391 313.437 356.924V356.924Z" fill="white"/>
<path d="M203.277 222C220.398 222 234.277 208.121 234.277 191C234.277 173.879 220.398 160 203.277 160C186.156 160 172.277 173.879 172.277 191C172.277 208.121 186.156 222 203.277 222Z" fill="#F2F2F2"/>
<path d="M107.695 84.1377H321.277V95.823H134.961C124.006 95.823 113.159 97.9806 103.038 102.173C92.9172 106.365 83.7212 112.509 75.9751 120.256C68.2289 128.002 62.0844 137.198 57.8922 147.319C53.7 157.439 51.5424 168.287 51.5424 179.241V312H28.1718C27.1388 312 26.1481 311.59 25.4176 310.859C24.6872 310.129 24.2768 309.138 24.2768 308.105V167.556C24.2768 156.601 26.4344 145.754 30.6266 135.633C34.8188 125.512 40.9634 116.316 48.7095 108.57C56.4556 100.824 65.6516 94.6796 75.7724 90.4875C85.8932 86.2953 96.7407 84.1377 107.695 84.1377V84.1377Z" fill="#F2F2F2"/>
<path d="M148.777 489V311.5H200.777V489C200.775 490.193 200.301 491.337 199.457 492.18C198.614 493.024 197.47 493.499 196.277 493.5H153.277C152.084 493.499 150.94 493.024 150.096 492.18C149.253 491.337 148.778 490.193 148.777 489Z" fill="#3F3D56"/>
<path d="M13.2768 308V163.666C13.3027 140.688 22.4418 118.66 38.6891 102.412C54.9364 86.1652 76.9649 77.026 99.9421 77H320.277V313H18.2768C16.9512 312.998 15.6803 312.471 14.7429 311.534C13.8056 310.597 13.2783 309.326 13.2768 308V308ZM318.277 79H99.9421C77.4952 79.0254 55.975 87.9537 40.1027 103.826C24.2304 119.698 15.3021 141.219 15.2768 163.666V308C15.2776 308.795 15.594 309.558 16.1564 310.12C16.7188 310.683 17.4814 310.999 18.2768 311H318.277V79Z" fill="#3F3D56"/>
<path d="M203.277 207C198.505 206.995 193.929 205.096 190.555 201.722C187.18 198.347 185.282 193.772 185.277 189V60C185.276 59.2046 184.96 58.4421 184.397 57.8796C183.835 57.3172 183.072 57.0009 182.277 57H112.277C110.951 56.9985 109.68 56.4712 108.743 55.5338C107.806 54.5965 107.278 53.3256 107.277 52V5C107.278 3.67439 107.806 2.40351 108.743 1.46616C109.68 0.528807 110.951 0.00153504 112.277 0H216.277C217.602 0.00151655 218.873 0.528787 219.811 1.46614C220.748 2.40349 221.275 3.67438 221.277 5V189C221.271 193.772 219.373 198.347 215.999 201.722C212.624 205.096 208.049 206.995 203.277 207Z" fill="#BA3521"/>
<path d="M328.277 75.0001C343.362 74.9685 357.843 80.9309 368.532 91.5758C379.222 102.221 385.245 116.676 385.277 131.762V296.071H497.277C501.776 296.062 506.095 297.84 509.283 301.015C512.471 304.19 514.267 308.501 514.277 313H271.277V131.762C271.308 116.676 277.332 102.221 288.021 91.5758C298.711 80.931 313.191 74.9685 328.277 75.0001Z" fill="#3F3D56"/>
<path d="M314.599 168.568L326.402 217.324L557.283 161.432L545.48 112.676C545.337 112.08 545.046 111.529 544.634 111.076C544.222 110.622 543.702 110.28 543.122 110.081C542.694 109.93 542.242 109.862 541.788 109.88L408.329 40.7782C407.547 40.3789 406.648 40.2722 405.794 40.4775C404.94 40.6827 404.188 41.1863 403.673 41.8975L339.353 131.591L315.105 165.414C315.061 165.473 315.03 165.541 315.015 165.613C314.999 165.686 315 165.76 315.016 165.832C314.522 166.654 314.373 167.636 314.599 168.568V168.568Z" fill="white"/>
<path d="M315.016 165.832C315.027 165.896 315.051 165.956 315.086 166.01C315.121 166.065 315.166 166.111 315.219 166.148C315.282 166.191 315.352 166.221 315.427 166.235C315.501 166.25 315.578 166.25 315.652 166.234C315.773 166.202 315.879 166.128 315.951 166.026L316.035 165.911L317.297 164.145L340.226 132.181L404.527 42.508C404.894 41.9999 405.431 41.6401 406.04 41.494C406.65 41.3479 407.291 41.4252 407.849 41.7118L540.274 110.278L541.462 110.895C541.511 110.915 541.56 110.933 541.61 110.947C541.699 110.931 541.79 110.922 541.881 110.921C542.006 110.879 542.109 110.792 542.171 110.676C542.203 110.615 542.223 110.549 542.23 110.48C542.236 110.411 542.229 110.342 542.209 110.276C542.188 110.211 542.155 110.149 542.111 110.096C542.067 110.043 542.013 110 541.952 109.967L541.788 109.88L408.329 40.7782C407.547 40.3789 406.648 40.2722 405.794 40.4775C404.94 40.6827 404.188 41.1863 403.673 41.8975L339.353 131.591L315.105 165.414C315.061 165.473 315.03 165.541 315.015 165.613C314.999 165.686 315 165.76 315.016 165.832V165.832Z" fill="#3F3D56"/>
<path d="M384.357 170.804L389.496 171.374L427.639 175.599L452.925 178.399L454.418 178.565L485.97 153.92L487.179 152.976L494.631 147.156L521.145 126.449L521.304 124.995L530.735 39.8808C530.863 38.7088 530.522 37.5337 529.785 36.613C529.049 35.6923 527.977 35.1012 526.805 34.9693L400.95 21.0276C399.778 20.8996 398.603 21.2412 397.682 21.9777C396.762 22.7141 396.17 23.7853 396.038 24.9568L389.388 84.9943L385.699 118.28L382.399 148.059L380.869 161.888L380.422 165.894C380.295 167.066 380.638 168.241 381.375 169.161C382.113 170.082 383.185 170.672 384.357 170.804V170.804Z" fill="#E6E6E6"/>
<path d="M418.942 96.1977L473.459 102.236L492.792 104.376C493.646 104.471 494.51 104.396 495.334 104.157C496.159 103.918 496.929 103.518 497.599 102.982C498.27 102.445 498.828 101.781 499.242 101.029C499.656 100.277 499.917 99.45 500.012 98.5964C500.107 97.7428 500.032 96.879 499.793 96.0542C499.553 95.2294 499.154 94.4598 498.617 93.7894C498.081 93.119 497.417 92.5608 496.665 92.1468C495.912 91.7328 495.086 91.4711 494.232 91.3765L470.185 88.7133L420.386 83.1914C418.661 83.001 416.932 83.503 415.578 84.5871C414.224 85.6713 413.356 87.2489 413.164 88.9731C412.973 90.6972 413.474 92.4268 414.557 93.7816C415.641 95.1363 417.218 96.0054 418.942 96.1977Z" fill="white"/>
<path d="M415.838 120.314C415.979 120.339 416.119 120.364 416.263 120.378L479.548 127.389L490.114 128.562C491.839 128.752 493.568 128.25 494.923 127.166C496.277 126.081 497.145 124.503 497.336 122.779C497.527 121.054 497.024 119.324 495.94 117.97C494.855 116.616 493.277 115.748 491.552 115.557L476.274 113.866L426.144 108.312L417.708 107.377C416.02 107.189 414.326 107.664 412.983 108.702C411.64 109.74 410.753 111.26 410.511 112.94C410.268 114.62 410.688 116.329 411.682 117.705C412.676 119.081 414.167 120.017 415.838 120.314V120.314Z" fill="white"/>
<path d="M408.675 141.698C409.194 142.559 409.904 143.288 410.751 143.831C411.597 144.373 412.557 144.712 413.556 144.823L439.495 147.696L485.692 152.814L485.702 152.811L487.179 152.976L494.631 147.156C494.678 146.714 494.678 146.268 494.633 145.826C494.475 144.341 493.816 142.955 492.764 141.896C491.712 140.837 490.329 140.168 488.846 140.002L482.428 139.289L456.971 136.472L438.655 134.44L414.994 131.818C413.782 131.684 412.556 131.891 411.455 132.417C410.354 132.943 409.423 133.767 408.765 134.795C408.108 135.822 407.751 137.013 407.735 138.233C407.72 139.453 408.045 140.653 408.676 141.698L408.675 141.698Z" fill="white"/>
<path d="M445.108 66.7194L458.673 68.2218L464.664 68.8871L473.714 69.8887C475.439 70.0795 477.168 69.5773 478.523 68.4928C479.877 67.4082 480.745 65.8301 480.936 64.1055C481.127 62.3809 480.625 60.6512 479.54 59.2969C478.455 57.9425 476.877 57.0745 475.153 56.8837L446.553 53.7183C444.829 53.5267 443.1 54.0277 441.745 55.1113C440.391 56.1949 439.522 57.7723 439.33 59.4963C439.139 61.2204 439.64 62.95 440.723 64.3045C441.807 65.6591 443.384 66.5278 445.108 66.7194V66.7194Z" fill="white"/>
<path d="M334.193 102.932L350.731 171.246L378.332 176.494L403.864 181.355L431.258 186.567L440.011 188.233C440.523 188.33 441.05 188.316 441.557 188.194C442.064 188.071 442.539 187.842 442.95 187.521L449.972 182.037L454.418 178.565L485.97 153.92L465.908 71.0464C465.71 70.2219 465.278 69.4721 464.664 68.8873C464.126 68.3698 463.465 67.9962 462.745 67.8009C462.024 67.6057 461.265 67.5951 460.539 67.7701L337.47 97.5628C336.324 97.841 335.335 98.5627 334.721 99.5694C334.106 100.576 333.917 101.785 334.193 102.932V102.932Z" fill="#BA3521"/>
<path d="M372.114 157.278C372.523 158.963 373.585 160.417 375.065 161.32C376.545 162.223 378.324 162.502 380.009 162.096L452.224 144.614C453.909 144.204 455.362 143.142 456.265 141.662C457.168 140.182 457.447 138.404 457.042 136.718C457.023 136.635 457 136.553 456.971 136.472C456.51 134.846 455.438 133.463 453.979 132.611C452.52 131.758 450.788 131.504 449.146 131.9L376.932 149.382C375.247 149.792 373.793 150.853 372.889 152.333C371.986 153.814 371.707 155.592 372.114 157.278Z" fill="white"/>
<path d="M378.332 176.494L403.864 181.355L457.948 168.262C459.634 167.854 461.089 166.793 461.993 165.312C462.896 163.831 463.175 162.052 462.766 160.366C462.358 158.68 461.297 157.225 459.816 156.322C458.336 155.418 456.557 155.14 454.871 155.548L382.656 173.03C381.147 173.392 379.818 174.283 378.909 175.541C378.69 175.842 378.497 176.161 378.332 176.494Z" fill="white"/>
<path d="M431.258 186.567L440.01 188.233C440.523 188.33 441.05 188.316 441.557 188.194C442.064 188.071 442.539 187.842 442.95 187.521L449.972 182.037L431.258 186.567Z" fill="white"/>
<path d="M386.664 120.647C387.074 122.332 388.135 123.786 389.616 124.689C391.096 125.592 392.874 125.871 394.56 125.465L422.531 118.694C424.215 118.283 425.668 117.222 426.572 115.741C427.475 114.261 427.754 112.484 427.349 110.798C427.131 109.892 426.72 109.044 426.144 108.312C425.37 107.322 424.328 106.575 423.141 106.162C421.955 105.748 420.674 105.685 419.453 105.98L391.483 112.751C389.797 113.159 388.342 114.22 387.439 115.701C386.535 117.182 386.257 118.961 386.664 120.647V120.647Z" fill="white"/>
<path d="M403.862 181.354L431.26 186.568L440.01 188.234C440.522 188.33 441.049 188.316 441.555 188.193C442.062 188.071 442.537 187.842 442.948 187.523L449.975 182.037L447.509 182.634L442.304 186.695C442.01 186.923 441.671 187.086 441.309 187.174C440.947 187.262 440.571 187.272 440.205 187.203L433.726 185.971L406.328 180.757L403.862 181.354ZM485.7 152.815L485.966 153.917L487.181 152.972L485.7 152.815ZM403.862 181.354L431.26 186.568L440.01 188.234C440.522 188.33 441.049 188.316 441.555 188.193C442.062 188.071 442.537 187.842 442.948 187.523L449.975 182.037L447.509 182.634L442.304 186.695C442.01 186.923 441.671 187.086 441.309 187.174C440.947 187.262 440.571 187.272 440.205 187.203L433.726 185.971L406.328 180.757L403.862 181.354ZM403.862 181.354L431.26 186.568L440.01 188.234C440.522 188.33 441.049 188.316 441.555 188.193C442.062 188.071 442.537 187.842 442.948 187.523L449.975 182.037L447.509 182.634L442.304 186.695C442.01 186.923 441.671 187.086 441.309 187.174C440.947 187.262 440.571 187.272 440.205 187.203L433.726 185.971L406.328 180.757L403.862 181.354ZM314.599 168.567L345.515 296.278C345.744 297.221 346.339 298.035 347.168 298.541C347.997 299.047 348.993 299.204 349.937 298.976L573.698 244.808C574.641 244.579 575.456 243.984 575.961 243.155C576.467 242.326 576.624 241.33 576.396 240.386L545.48 112.676C545.337 112.08 545.046 111.529 544.634 111.076C544.222 110.622 543.702 110.28 543.122 110.081C542.694 109.93 542.242 109.862 541.788 109.88C541.26 109.895 540.742 110.032 540.274 110.278C540.058 110.381 539.854 110.507 539.667 110.655L521.303 124.995L494.633 145.829L485.698 152.808L485.7 152.815L485.692 152.817L452.926 178.395L447.51 182.634L442.304 186.695C442.01 186.923 441.671 187.086 441.309 187.174C440.947 187.262 440.571 187.272 440.205 187.203L433.726 185.971L406.328 180.757L378.906 175.542L318.844 164.112C318.332 164.01 317.804 164.022 317.297 164.145C316.614 164.312 315.993 164.672 315.509 165.181C315.323 165.381 315.158 165.599 315.016 165.832C314.522 166.654 314.373 167.636 314.599 168.567V168.567ZM403.862 181.354L431.26 186.568L440.01 188.234C440.522 188.33 441.049 188.316 441.555 188.193C442.062 188.071 442.537 187.842 442.948 187.523L449.975 182.037L447.509 182.634L442.304 186.695C442.01 186.923 441.671 187.086 441.309 187.174C440.947 187.262 440.571 187.272 440.205 187.203L433.726 185.971L406.328 180.757L403.862 181.354ZM403.862 181.354L431.26 186.568L440.01 188.234C440.522 188.33 441.049 188.316 441.555 188.193C442.062 188.071 442.537 187.842 442.948 187.523L449.975 182.037L447.509 182.634L442.304 186.695C442.01 186.923 441.671 187.086 441.309 187.174C440.947 187.262 440.571 187.272 440.205 187.203L433.726 185.971L406.328 180.757L403.862 181.354ZM403.862 181.354L431.26 186.568L440.01 188.234C440.522 188.33 441.049 188.316 441.555 188.193C442.062 188.071 442.537 187.842 442.948 187.523L449.975 182.037L447.509 182.634L442.304 186.695C442.01 186.923 441.671 187.086 441.309 187.174C440.947 187.262 440.571 187.272 440.205 187.203L433.726 185.971L406.328 180.757L403.862 181.354Z" fill="white"/>
<path d="M403.862 181.354L431.26 186.568L440.01 188.234C440.522 188.33 441.049 188.316 441.555 188.193C442.062 188.071 442.537 187.842 442.948 187.523L449.975 182.037L447.509 182.634L442.304 186.695C442.01 186.923 441.671 187.086 441.309 187.174C440.947 187.262 440.571 187.272 440.205 187.203L433.726 185.971L406.328 180.757L403.862 181.354ZM485.7 152.815L485.966 153.917L487.181 152.972L485.7 152.815ZM403.862 181.354L431.26 186.568L440.01 188.234C440.522 188.33 441.049 188.316 441.555 188.193C442.062 188.071 442.537 187.842 442.948 187.523L449.975 182.037L447.509 182.634L442.304 186.695C442.01 186.923 441.671 187.086 441.309 187.174C440.947 187.262 440.571 187.272 440.205 187.203L433.726 185.971L406.328 180.757L403.862 181.354ZM403.862 181.354L431.26 186.568L440.01 188.234C440.522 188.33 441.049 188.316 441.555 188.193C442.062 188.071 442.537 187.842 442.948 187.523L449.975 182.037L447.509 182.634L442.304 186.695C442.01 186.923 441.671 187.086 441.309 187.174C440.947 187.262 440.571 187.272 440.205 187.203L433.726 185.971L406.328 180.757L403.862 181.354ZM316.035 165.911L316.17 166.013C316.193 165.976 316.233 165.942 316.263 165.903C316.566 165.588 316.942 165.353 317.359 165.219C317.775 165.085 318.218 165.056 318.648 165.135L378.334 176.489L403.862 181.354L431.26 186.568L440.01 188.234C440.522 188.33 441.049 188.316 441.555 188.193C442.062 188.071 442.537 187.842 442.948 187.523L449.975 182.037L447.509 182.634L442.304 186.695C442.01 186.923 441.671 187.086 441.309 187.174C440.947 187.262 440.571 187.271 440.205 187.203L433.726 185.971L406.328 180.757L378.906 175.542L318.844 164.112C318.332 164.01 317.804 164.022 317.297 164.145L316.035 165.911ZM314.599 168.567L345.515 296.278C345.744 297.221 346.339 298.035 347.168 298.541C347.997 299.047 348.993 299.204 349.937 298.976L573.698 244.808C574.641 244.579 575.456 243.984 575.961 243.155C576.467 242.326 576.624 241.33 576.396 240.386L545.48 112.676C545.337 112.08 545.046 111.529 544.634 111.076C544.222 110.622 543.702 110.28 543.122 110.081C542.694 109.93 542.242 109.862 541.788 109.88C541.26 109.895 540.742 110.032 540.274 110.278C540.058 110.381 539.854 110.507 539.667 110.655L521.303 124.995L494.633 145.829L485.698 152.808L485.7 152.815L485.692 152.817L452.926 178.395L447.51 182.634L442.304 186.695C442.01 186.923 441.671 187.086 441.309 187.174C440.947 187.262 440.571 187.272 440.205 187.203L433.726 185.971L406.328 180.757L378.906 175.542L318.844 164.112C318.332 164.01 317.804 164.022 317.297 164.145C316.614 164.312 315.993 164.672 315.509 165.181C315.323 165.381 315.158 165.599 315.016 165.832C314.522 166.653 314.373 167.636 314.599 168.567V168.567ZM315.618 168.321C315.527 167.944 315.521 167.552 315.601 167.173C315.681 166.794 315.844 166.438 316.08 166.13C316.101 166.085 316.132 166.045 316.17 166.013C316.193 165.976 316.233 165.942 316.263 165.903C316.566 165.588 316.942 165.353 317.359 165.219C317.775 165.085 318.218 165.056 318.648 165.135L378.334 176.489L403.862 181.354L431.26 186.568L440.01 188.234C440.522 188.33 441.049 188.316 441.555 188.193C442.062 188.071 442.537 187.842 442.948 187.523L449.975 182.037L454.419 178.565L485.966 153.917L487.181 152.972L494.628 147.155L521.146 126.445L540.317 111.474C540.609 111.247 540.945 111.084 541.305 110.997C541.405 110.972 541.507 110.955 541.61 110.947C541.699 110.93 541.79 110.922 541.881 110.921C542.188 110.918 542.492 110.967 542.782 111.068C543.195 111.212 543.566 111.456 543.86 111.78C544.155 112.104 544.364 112.496 544.468 112.921L575.384 240.631C575.465 240.966 575.48 241.313 575.427 241.653C575.374 241.994 575.254 242.32 575.075 242.614C574.895 242.908 574.66 243.164 574.381 243.367C574.103 243.57 573.787 243.715 573.453 243.796L349.692 297.964C349.017 298.126 348.305 298.014 347.713 297.651C347.121 297.289 346.697 296.706 346.534 296.031L315.618 168.321ZM403.862 181.354L431.26 186.568L440.01 188.234C440.522 188.33 441.049 188.316 441.555 188.193C442.062 188.071 442.537 187.842 442.948 187.523L449.975 182.037L447.509 182.634L442.304 186.695C442.01 186.923 441.671 187.086 441.309 187.174C440.947 187.262 440.571 187.272 440.205 187.203L433.726 185.971L406.328 180.757L403.862 181.354ZM403.862 181.354L431.26 186.568L440.01 188.234C440.522 188.33 441.049 188.316 441.555 188.193C442.062 188.071 442.537 187.842 442.948 187.523L449.975 182.037L447.509 182.634L442.304 186.695C442.01 186.923 441.671 187.086 441.309 187.174C440.947 187.262 440.571 187.272 440.205 187.203L433.726 185.971L406.328 180.757L403.862 181.354ZM403.862 181.354L431.26 186.568L440.01 188.234C440.522 188.33 441.049 188.316 441.555 188.193C442.062 188.071 442.537 187.842 442.948 187.523L449.975 182.037L447.509 182.634L442.304 186.695C442.01 186.923 441.671 187.086 441.309 187.174C440.947 187.262 440.571 187.272 440.205 187.203L433.726 185.971L406.328 180.757L403.862 181.354Z" fill="#3F3D56"/>
<path d="M515.379 219.717C514.875 217.625 515.221 215.418 516.342 213.58C517.464 211.743 519.268 210.425 521.36 209.916L549.601 203.079C551.691 202.581 553.893 202.932 555.725 204.054C557.557 205.176 558.869 206.979 559.375 209.067C559.88 211.155 559.537 213.358 558.422 215.194C557.306 217.03 555.508 218.349 553.422 218.861L525.18 225.698C523.087 226.202 520.88 225.856 519.043 224.734C517.205 223.613 515.888 221.809 515.379 219.717Z" fill="#BA3521"/>
<path d="M203.277 196C207.143 196 210.277 192.866 210.277 189C210.277 185.134 207.143 182 203.277 182C199.411 182 196.277 185.134 196.277 189C196.277 192.866 199.411 196 203.277 196Z" fill="white"/>
</g>
<defs>
<clipPath id="clip0_4_60">
<rect width="576.499" height="493.5" fill="white"/>
</clipPath>
</defs>
</svg>
