<svg width="566" height="568" viewBox="0 0 566 568" fill="none" xmlns="http://www.w3.org/2000/svg">
<g clip-path="url(#clip0_2_93)">
<path d="M54.4299 478.49L49.4451 458.82C40.6067 455.072 31.5642 451.826 22.3604 449.097L21.7312 458.239L19.1795 448.167C7.76527 444.903 0 443.466 0 443.466C0 443.466 10.4864 483.374 32.4882 513.883L58.1222 518.388L38.2079 521.261C40.9754 524.593 43.9497 527.748 47.113 530.706C79.1156 560.427 114.761 574.064 126.729 561.163C138.696 548.263 122.454 513.712 90.4516 483.993C80.5305 474.779 68.0676 467.385 55.5918 461.565L54.4299 478.49Z" fill="#F2F2F2"/>
<path d="M101.836 457.124L107.731 437.708C102.102 429.929 96.0387 422.473 89.5701 415.377L84.3087 422.878L87.3269 412.936C79.241 404.241 73.3359 398.996 73.3359 398.996C73.3359 398.996 61.6982 438.582 64.7682 476.078L84.3846 493.192L65.8495 485.352C66.498 489.636 67.4152 493.875 68.5957 498.044C80.6369 540.039 104.106 570.147 121.015 565.293C137.924 560.44 141.871 522.462 129.83 480.468C126.097 467.449 119.247 454.674 111.575 443.24L101.836 457.124Z" fill="#F2F2F2"/>
<path d="M394.952 134.56H391.842V49.3303C391.842 42.8522 390.567 36.4375 388.089 30.4524C385.612 24.4674 381.98 19.0293 377.402 14.4485C372.823 9.86777 367.388 6.23412 361.406 3.75504C355.425 1.27596 349.013 0 342.539 0H162.06C148.984 0 136.443 5.19729 127.197 14.4485C117.951 23.6997 112.757 36.2471 112.757 49.3303V516.913C112.757 523.391 114.032 529.805 116.51 535.79C118.987 541.776 122.619 547.214 127.197 551.794C131.776 556.375 137.211 560.009 143.193 562.488C149.174 564.967 155.586 566.243 162.06 566.243H342.539C355.615 566.243 368.155 561.045 377.401 551.794C386.647 542.543 391.842 529.996 391.842 516.913V195.227H394.951L394.952 134.56Z" fill="#E6E6E6"/>
<path d="M344.528 12.8292H320.972C322.055 15.4869 322.468 18.3704 322.176 21.2257C321.883 24.0809 320.893 26.8203 319.292 29.2025C317.692 31.5847 315.531 33.5365 312.999 34.886C310.467 36.2356 307.643 36.9414 304.774 36.9413H201.38C198.511 36.9411 195.687 36.2351 193.155 34.8855C190.623 33.5359 188.462 31.584 186.862 29.2019C185.262 26.8197 184.272 24.0804 183.979 21.2253C183.687 18.3702 184.1 15.4868 185.184 12.8292H163.18C153.415 12.8292 144.05 16.7105 137.145 23.6192C130.24 30.528 126.361 39.8982 126.361 49.6686V516.572C126.361 526.342 130.24 535.713 137.145 542.621C144.05 549.53 153.415 553.411 163.18 553.411H344.528C354.293 553.411 363.658 549.53 370.563 542.621C377.468 535.713 381.348 526.342 381.348 516.572V49.6679C381.347 39.8976 377.468 30.5275 370.563 23.619C363.658 16.7104 354.293 12.8292 344.528 12.8292Z" fill="white"/>
<path d="M230.746 198.82C230.745 195.556 231.604 192.35 233.235 189.524C234.867 186.698 237.213 184.352 240.039 182.721C237.215 181.089 234.011 180.23 230.749 180.229C227.488 180.229 224.283 181.088 221.459 182.719C218.634 184.351 216.288 186.697 214.657 189.524C213.026 192.35 212.168 195.555 212.168 198.819C212.168 202.082 213.026 205.288 214.657 208.114C216.288 210.94 218.634 213.287 221.459 214.918C224.283 216.55 227.488 217.408 230.749 217.408C234.011 217.408 237.215 216.548 240.039 214.916C237.214 213.286 234.867 210.94 233.235 208.115C231.604 205.289 230.745 202.083 230.746 198.82Z" fill="#CCCCCC"/>
<path d="M254.102 198.82C254.102 195.556 254.96 192.35 256.592 189.524C258.223 186.698 260.57 184.352 263.396 182.721C260.571 181.089 257.367 180.23 254.106 180.229C250.844 180.229 247.64 181.088 244.815 182.719C241.991 184.351 239.645 186.697 238.014 189.524C236.383 192.35 235.524 195.555 235.524 198.819C235.524 202.082 236.383 205.288 238.014 208.114C239.645 210.94 241.991 213.287 244.815 214.918C247.64 216.55 250.844 217.408 254.106 217.408C257.367 217.408 260.571 216.548 263.396 214.916C260.57 213.286 258.224 210.94 256.592 208.115C254.961 205.289 254.102 202.083 254.102 198.82Z" fill="#CCCCCC"/>
<path d="M276.929 217.408C287.19 217.408 295.508 209.086 295.508 198.819C295.508 188.553 287.19 180.23 276.929 180.23C266.668 180.23 258.349 188.553 258.349 198.819C258.349 209.086 266.668 217.408 276.929 217.408Z" fill="#BA3521"/>
<path d="M307.979 256.881H199.695C198.664 256.879 197.676 256.469 196.947 255.74C196.218 255.01 195.808 254.022 195.807 252.99V144.648C195.808 143.616 196.218 142.628 196.947 141.898C197.676 141.169 198.664 140.759 199.695 140.757H307.979C309.01 140.759 309.998 141.169 310.727 141.898C311.456 142.628 311.866 143.616 311.867 144.648V252.99C311.866 254.022 311.456 255.01 310.727 255.74C309.998 256.469 309.01 256.879 307.979 256.881ZM199.695 142.315C199.077 142.315 198.484 142.561 198.046 142.999C197.609 143.436 197.363 144.03 197.362 144.649V252.991C197.363 253.61 197.609 254.203 198.046 254.641C198.484 255.078 199.077 255.324 199.695 255.325H307.979C308.598 255.324 309.191 255.078 309.628 254.641C310.065 254.203 310.311 253.61 310.312 252.991V144.649C310.311 144.03 310.065 143.436 309.628 142.999C309.191 142.561 308.598 142.315 307.979 142.315H199.695Z" fill="#CCCCCC"/>
<path d="M332.157 339.93H166.082V341.486H332.157V339.93Z" fill="#CCCCCC"/>
<path d="M171.327 330.213C174.224 330.213 176.572 327.864 176.572 324.966C176.572 322.068 174.224 319.718 171.327 319.718C168.43 319.718 166.082 322.068 166.082 324.966C166.082 327.864 168.43 330.213 171.327 330.213Z" fill="#BA3521"/>
<path d="M332.157 392.403H166.082V393.959H332.157V392.403Z" fill="#CCCCCC"/>
<path d="M171.327 382.687C174.224 382.687 176.572 380.337 176.572 377.439C176.572 374.541 174.224 372.192 171.327 372.192C168.43 372.192 166.082 374.541 166.082 377.439C166.082 380.337 168.43 382.687 171.327 382.687Z" fill="#BA3521"/>
<path d="M329.118 452.156H276.634C275.727 452.155 274.858 451.794 274.217 451.153C273.576 450.512 273.215 449.642 273.214 448.735V430.33C273.215 429.422 273.576 428.553 274.217 427.911C274.858 427.27 275.727 426.909 276.634 426.908H329.118C330.024 426.909 330.894 427.27 331.535 427.911C332.176 428.553 332.536 429.422 332.537 430.33V448.735C332.536 449.642 332.176 450.512 331.535 451.153C330.894 451.794 330.024 452.155 329.118 452.156Z" fill="#BA3521"/>
<path d="M188.435 330.213C191.332 330.213 193.68 327.864 193.68 324.966C193.68 322.068 191.332 319.718 188.435 319.718C185.539 319.718 183.19 322.068 183.19 324.966C183.19 327.864 185.539 330.213 188.435 330.213Z" fill="#BA3521"/>
<path d="M205.543 330.213C208.44 330.213 210.788 327.864 210.788 324.966C210.788 322.068 208.44 319.718 205.543 319.718C202.647 319.718 200.299 322.068 200.299 324.966C200.299 327.864 202.647 330.213 205.543 330.213Z" fill="#BA3521"/>
<path d="M188.435 382.687C191.332 382.687 193.68 380.337 193.68 377.439C193.68 374.541 191.332 372.192 188.435 372.192C185.539 372.192 183.19 374.541 183.19 377.439C183.19 380.337 185.539 382.687 188.435 382.687Z" fill="#BA3521"/>
<path d="M205.543 382.687C208.44 382.687 210.788 380.337 210.788 377.439C210.788 374.541 208.44 372.192 205.543 372.192C202.647 372.192 200.299 374.541 200.299 377.439C200.299 380.337 202.647 382.687 205.543 382.687Z" fill="#BA3521"/>
<path d="M563.886 568H18.2981C17.1301 568 16.1841 567.585 16.1841 567.074C16.1841 566.563 17.1301 566.147 18.2981 566.147H563.886C565.053 566.147 566 566.562 566 567.074C566 567.586 565.053 568 563.886 568Z" fill="#3F3D56"/>
<path d="M429.09 372.136C429.463 372.306 429.821 372.507 430.162 372.734L464.245 358.18L465.461 349.197L479.08 349.114L478.275 369.716L433.29 381.619C433.195 381.932 433.082 382.239 432.95 382.538C432.3 383.926 431.254 385.092 429.944 385.888C428.633 386.683 427.117 387.074 425.586 387.011C424.055 386.947 422.576 386.432 421.336 385.531C420.097 384.63 419.15 383.382 418.617 381.944C418.084 380.507 417.987 378.943 418.338 377.451C418.69 375.958 419.474 374.603 420.593 373.555C421.712 372.507 423.116 371.813 424.627 371.561C426.139 371.308 427.692 371.508 429.09 372.136Z" fill="#FFB8B8"/>
<path d="M484.033 558.834H474.716L470.285 522.881L484.034 522.882L484.033 558.834Z" fill="#FFB8B8"/>
<path d="M468.062 556.17H486.029V567.489H456.75C456.75 564.487 457.941 561.608 460.063 559.486C462.184 557.363 465.062 556.17 468.062 556.17Z" fill="#2F2E41"/>
<path d="M520.264 556.2L510.993 557.114L503.059 521.769L516.742 520.421L520.264 556.2Z" fill="#FFB8B8"/>
<path d="M504.11 555.116L521.99 553.354L523.099 564.618L493.961 567.489C493.815 566.01 493.962 564.517 494.393 563.095C494.825 561.672 495.532 560.349 496.474 559.2C497.416 558.051 498.576 557.099 499.886 556.398C501.196 555.697 502.631 555.262 504.11 555.116Z" fill="#2F2E41"/>
<path d="M486.626 311.064C496.933 311.064 505.289 302.703 505.289 292.39C505.289 282.077 496.933 273.716 486.626 273.716C476.318 273.716 467.962 282.077 467.962 292.39C467.962 302.703 476.318 311.064 486.626 311.064Z" fill="#FFB8B8"/>
<path d="M472.634 551.563C471.834 551.565 471.058 551.284 470.444 550.77C469.831 550.256 469.418 549.541 469.28 548.752C464.458 521.97 448.696 434.4 448.319 431.974C448.311 431.918 448.307 431.862 448.307 431.805V425.276C448.306 425.038 448.381 424.806 448.519 424.613L450.602 421.695C450.7 421.555 450.83 421.439 450.981 421.356C451.132 421.274 451.299 421.227 451.471 421.22C463.342 420.663 502.219 419.031 504.097 421.379C505.983 423.738 505.317 430.888 505.164 432.297L505.172 432.444L522.638 544.204C522.775 545.095 522.555 546.004 522.027 546.735C521.498 547.466 520.704 547.959 519.815 548.108L508.906 549.906C508.093 550.037 507.261 549.871 506.56 549.439C505.859 549.008 505.337 548.339 505.087 547.554C501.713 536.767 490.399 500.478 486.478 486.437C486.453 486.348 486.397 486.271 486.32 486.22C486.243 486.17 486.15 486.149 486.059 486.162C485.968 486.175 485.884 486.22 485.824 486.29C485.764 486.36 485.732 486.45 485.733 486.542C485.929 499.928 486.402 534.079 486.566 545.874L486.583 547.144C486.591 548.004 486.275 548.835 485.699 549.474C485.123 550.113 484.329 550.512 483.473 550.593L472.954 551.549C472.847 551.559 472.74 551.563 472.634 551.563Z" fill="#2F2E41"/>
<path d="M474.781 318.406C471.524 320.344 469.575 323.904 468.457 327.526C466.386 334.233 465.139 341.167 464.745 348.175L463.563 369.16L448.931 424.791C461.613 435.527 468.928 433.087 485.999 424.305C503.07 415.523 505.021 427.233 505.021 427.233L508.434 379.898L513.311 328.173C512.217 326.854 510.978 325.662 509.617 324.62C505.109 321.112 499.864 318.674 494.278 317.49C488.691 316.305 482.909 316.404 477.366 317.78L474.781 318.406Z" fill="#BA3521"/>
<path d="M470.028 383.371C470.422 383.519 470.803 383.698 471.169 383.906L504.868 367.03L505.428 357.887L519.329 356.928L520.074 377.77L475.039 392.671C474.671 394.249 473.832 395.678 472.633 396.767C471.434 397.856 469.931 398.555 468.326 398.769C466.721 398.983 465.088 398.703 463.646 397.967C462.203 397.23 461.019 396.072 460.251 394.645C459.482 393.219 459.166 391.592 459.344 389.982C459.522 388.371 460.186 386.853 461.247 385.629C462.309 384.405 463.717 383.534 465.286 383.13C466.855 382.727 468.509 382.811 470.028 383.371Z" fill="#FFB8B8"/>
<path d="M513.068 328.41C521.359 331.338 522.82 363.06 522.82 363.06C513.065 357.692 501.359 366.476 501.359 366.476C501.359 366.476 498.921 358.18 495.994 347.444C495.111 344.424 495.005 341.23 495.687 338.158C496.369 335.086 497.817 332.237 499.896 329.876C499.896 329.876 504.776 325.48 513.068 328.41Z" fill="#BA3521"/>
<path d="M503.36 297.328C501.035 295.467 497.863 298.85 497.863 298.85L496.002 282.098C496.002 282.098 484.375 283.492 476.934 281.633C469.493 279.775 468.33 288.381 468.33 288.381C467.946 284.905 467.869 281.401 468.098 277.911C468.562 273.723 474.609 269.535 485.305 266.743C496.002 263.951 501.583 276.05 501.583 276.05C509.025 279.772 505.686 299.19 503.36 297.328Z" fill="#2F2E41"/>
</g>
<defs>
<clipPath id="clip0_2_93">
<rect width="566" height="568" fill="white"/>
</clipPath>
</defs>
</svg>
