<svg width="38" height="38" viewBox="0 0 38 38" fill="none" xmlns="http://www.w3.org/2000/svg">
<path fill-rule="evenodd" clip-rule="evenodd" d="M30.5671 7.17038C29.0417 5.64418 27.2294 4.43478 25.2346 3.6118C23.2399 2.78882 21.1021 2.36851 18.9442 2.37508C9.88838 2.37508 2.51643 9.71019 2.51275 18.7277C2.50874 21.5991 3.26563 24.4203 4.70636 26.904L2.375 35.375L11.0854 33.1011C13.4964 34.4073 16.1954 35.0909 18.9376 35.0899H18.9442C27.9993 35.0899 35.3705 27.7541 35.3749 18.7373C35.3804 16.5868 34.9582 14.4567 34.1328 12.4709C33.3074 10.4852 32.0953 8.68337 30.5671 7.17038ZM18.9442 32.3299H18.9383C16.4938 32.3306 14.0937 31.6764 11.9877 30.4353L11.489 30.1407L6.32026 31.4901L7.69992 26.4746L7.37508 25.959C6.00822 23.795 5.28404 21.2873 5.2868 18.7277C5.2868 11.2342 11.4161 5.13735 18.9494 5.13735C22.5632 5.13089 26.0315 6.56012 28.5916 9.11068C31.1517 11.6612 32.5939 15.1243 32.6009 18.738C32.5979 26.2323 26.4716 32.3299 18.9442 32.3299ZM26.4348 22.1507C26.0245 21.9459 24.004 20.9574 23.6298 20.8211C23.2556 20.6849 22.9793 20.6164 22.7061 21.0259C22.4328 21.4355 21.6453 22.3518 21.406 22.628C21.1666 22.9043 20.9272 22.9345 20.5169 22.7297C20.1066 22.5249 18.7829 22.094 17.2147 20.7018C15.9941 19.6183 15.1706 18.2806 14.9312 17.8718C14.6918 17.463 14.9054 17.2412 15.1109 17.0379C15.2958 16.8545 15.5212 16.5606 15.7267 16.322C15.9322 16.0833 16.0007 15.9124 16.137 15.6399C16.2733 15.3673 16.2055 15.1287 16.1031 14.9246C16.0007 14.7206 15.1794 12.7089 14.8376 11.8905C14.504 11.0935 14.1659 11.2018 13.9139 11.1893C13.6745 11.1775 13.3983 11.1746 13.1265 11.1746C12.9187 11.18 12.7143 11.2282 12.5259 11.3161C12.3376 11.4041 12.1694 11.5299 12.0319 11.6858C11.6555 12.0953 10.5948 13.0853 10.5948 15.0948C10.5948 17.1042 12.068 19.0489 12.2713 19.3214C12.4746 19.594 15.1662 23.7212 19.2845 25.4912C20.0493 25.8187 20.8306 26.1059 21.6255 26.3516C22.6088 26.6624 23.5038 26.619 24.2109 26.5136C24.9999 26.3965 26.6417 25.5251 26.9828 24.5705C27.3238 23.6158 27.3246 22.7982 27.2222 22.628C27.1198 22.4579 26.8458 22.3548 26.4348 22.1507Z" fill="#0F222D"/>
</svg>
